<mxfile host="app.diagrams.net" modified="2024-04-08T13:44:20.728Z" agent="Mozilla/5.0 (Windows NT 10.0; Win64; x64; rv:124.0) Gecko/20100101 Firefox/124.0" etag="8biJyZOjfS4WgMKlFeLm" version="24.2.2" type="device" pages="2">
  <diagram name="Page-1" id="ilJDpJdwl8C4BLZdSGqf">
    <mxGraphModel dx="1221" dy="626" grid="1" gridSize="10" guides="1" tooltips="1" connect="1" arrows="1" fold="1" page="1" pageScale="1" pageWidth="827" pageHeight="1169" math="0" shadow="0">
      <root>
        <mxCell id="0" />
        <mxCell id="1" parent="0" />
      </root>
    </mxGraphModel>
  </diagram>
  <diagram id="6V_lCZQsQUIVescjW1no" name="Page-2">
    <mxGraphModel dx="1221" dy="626" grid="1" gridSize="10" guides="1" tooltips="1" connect="1" arrows="1" fold="1" page="1" pageScale="1" pageWidth="827" pageHeight="1169" math="0" shadow="0">
      <root>
        <mxCell id="0" />
        <mxCell id="1" parent="0" />
      </root>
    </mxGraphModel>
  </diagram>
</mxfile>
